<svg width="59" height="59" viewBox="0 0 59 59" fill="none" xmlns="http://www.w3.org/2000/svg">
<rect width="59" height="59" rx="8" fill="white"/>
<path d="M11.5833 22.3084C11.7796 18.3484 12.3667 15.8794 14.123 14.1231C15.8794 12.3667 18.3484 11.7796 22.3084 11.5834M47.4166 22.3084C47.2204 18.3484 46.6333 15.8794 44.8769 14.1231C43.1206 12.3667 40.6516 11.7796 36.6916 11.5834M36.6916 47.4167C40.6516 47.2205 43.1206 46.6333 44.8769 44.877C46.6333 43.1206 47.2204 40.6517 47.4166 36.6917M22.3084 47.4167C18.3484 47.2205 15.8794 46.6333 14.123 44.877C12.3667 43.1206 11.7796 40.6517 11.5833 36.6917" stroke="#1F3343" stroke-width="2.6875" stroke-linecap="round" stroke-linejoin="round"/>
<path d="M37.5888 24.0219C38.1569 25.053 38.4585 26.1884 38.4584 27.3485V32.5112C38.4584 34.5438 37.4983 36.5462 35.8346 37.9834C34.1709 39.4207 31.8529 40.2501 29.5001 40.2501M20.5417 28.2071V32.5117C20.5409 34.7664 21.713 36.9837 23.7685 38.462M33.9793 19.7869C31.9218 18.7607 29.4766 18.4826 27.1817 19.0138C24.8868 19.545 22.9302 20.8419 21.7422 22.6194M32.486 28.5653V26.9759C32.5038 25.8355 31.5306 24.8089 30.208 24.5386M26.5144 29.2434V31.9735C26.5046 32.4762 26.6809 32.9694 27.0196 33.387C28.0768 34.6906 30.4421 34.8396 31.7217 33.6615" stroke="#1F3343" stroke-width="2.6875" stroke-linecap="round" stroke-linejoin="round"/>
</svg>
